<svg xmlns="http://www.w3.org/2000/svg" viewBox="0 0 57.52 56.99"><defs><linearGradient id="a2b53f645-bd45-451c-9847-7d715a107b6e" x1="18.78" y1="57.54" x2="18.78" y2="9.16" gradientUnits="userSpaceOnUse"><stop offset="0" stop-color="#26569e"></stop><stop offset="1" stop-color="#32b4b4"></stop></linearGradient><linearGradient id="b4f67fd09-84e0-47c2-a254-f13e17cb4d74" x1="21.66" y1="4.13" x2="53.9" y2="33.54" gradientUnits="userSpaceOnUse"><stop offset="0" stop-color="#e56433"></stop><stop offset=".52" stop-color="#db2d7f"></stop><stop offset=".59" stop-color="#cf2e80"></stop><stop offset=".73" stop-color="#b13184"></stop><stop offset=".91" stop-color="#7f3689"></stop><stop offset="1" stop-color="#62398c"></stop></linearGradient></defs><g><g><path d="M20.34.26S9.92 5.15 9.92 15.12s13.42 14.32 13.42 14.32-19.06-12.69-3-29.18zM33.53 57s11-1.62 13.61-12c2.86-11.39-9.67-17.09-9.67-17.09S54.88 45 33.53 57z" fill="#799495"></path><path d="M7.29 15.3a15.62 15.62 0 0 1 3.85-10.57 28.75 28.75 0 0 0-4.58 41v-9.57h1.63C9.42 46.63 15.22 55 26 55c7.93 0 11.53-4.5 11.53-10.14.02-14.59-30.24-9.03-30.24-29.56zm18.34 37A9.34 9.34 0 0 1 18 48.75a9.15 9.15 0 0 0 6.05 2.17c4.58 0 8.29-3.06 8.29-6.83 0-2.74-2-5.09-4.77-6.18 3.94.74 6.88 3.64 6.88 7.11.03 3.98-3.93 7.3-8.82 7.3z" fill="url(#a2b53f645-bd45-451c-9847-7d715a107b6e)"></path><path d="M49 7v10.34h-1.71C46.14 7.28 41.32 0 31.17 0c-7.44 0-10.88 4.17-10.88 9.49C20.29 25 51 17.1 51 39a16 16 0 0 1-3.74 10.48A28.75 28.75 0 0 0 49 7zM34.78 3.92c-4.78-.74-9.05 1.74-9.64 5.54-.43 2.76 1.22 5.44 4 7-4-1.38-6.55-4.78-6-8.27.63-4.06 5.25-6.71 10.3-5.92a9.88 9.88 0 0 1 7.3 4.82 9.73 9.73 0 0 0-5.96-3.17z" fill="url(#b4f67fd09-84e0-47c2-a254-f13e17cb4d74)"></path></g></g></svg>